# xmcd CD database file
#
# Track frame offsets:
#	150
#	19115
#	39958
#	64268
#	78398
#	97790
#	120160
#	142225
#	161535
#	183715
#	202503
#	222475
#	246438
#	262058
#	283633
#	306413
#
# Disc length: 4255 seconds
#
# Revision: 0
# Processed by: cddbd v1.5.2PL0 Copyright (c) Steve Scherf et al.
# Submitted via: CDex 1.70beta2
#
DISCID=e4109d10
DTITLE=Grosz, Marty and Destiny's Tots - Swing It!
DYEAR=1988
DGENRE=Jazz
TTITLE0=Let's Swing It
TTITLE1=Skeleton in the Closet, The
TTITLE2=Emaline
TTITLE3=Old Man Harlem
TTITLE4=Love Dropped In for Tea
TTITLE5=Little Girl
TTITLE6=Sunrise Serenade
TTITLE7=I've Got a Feelin' You're Foolin'
TTITLE8=What's the Use?
TTITLE9=Eye Opener
TTITLE10=Sun Will Shine Tonight, The
TTITLE11=It's Been So Long
TTITLE12=I Surrender, Dear
TTITLE13=It's the Last Time
TTITLE14=Sonny Boy
TTITLE15=A High Hat, a Piccolo, and a Cane
EXTD=YEAR: 1988
EXTT0=
EXTT1=
EXTT2=
EXTT3=
EXTT4=
EXTT5=
EXTT6=
EXTT7=
EXTT8=
EXTT9=
EXTT10=
EXTT11=
EXTT12=
EXTT13=
EXTT14=
EXTT15=
PLAYORDER=
